<svg version="1.0" xmlns="http://www.w3.org/2000/svg" stroke="#292524" fill="#292524" viewBox="0 0 1175 350"
>
<g transform="scale(.3)">
  <path d="M 50 550
           a500,500 0 0,1 500, -500
           l 145 0
           a500,500 0 0,1 500, 500
           l 0 100
           a500,500 0 0,1 -500, 500
           l 0 -130
           a370,370 0 0,0 370, -370
           m 0 -100
           a370,370 0 0,0 -370 -370
           l -145 0
           a370,370 0 0,0 -370 370
           m 0 100
           a370,370 0 0,0 370 370
           l 0 130
           a500,500 0 0,1 -500, -500
           l 0 -100
          "
        stroke-width="55" fill="none" />
</g>

<g transform="translate(460 300) scale(.05 -.05)">
<path d="m525 3939c-137-15-256-28-263-28-10-1-12-289-10-1423l3-1423 267-3 267-2 5 32c3 18 10 60 16 92 5 33 10 62 10 64 0 3 33-26 73-64 85-82 137-114 243-151 71-24 93-27 214-27 98-1 153 4 200 17 258 69 463 295 555 613 40 137 55 260 55 456 0 417-89 700-279 888-128 127-269 181-471 182-201 0-342-54-472-183l-78-76v533 534l-42-1c-24-1-155-14-293-30zm811-1247c56-29 119-103 144-169 34-92 51-230 51-427 0-99-5-213-11-251-31-198-95-316-204-373-44-22-63-26-136-26-122 0-203 40-281 137l-39 50v427 428l43 59c63 84 130 136 217 164 46 15 171 4 216-19z"/>
<path d="m8303 3942-253-25v-1424-1423h300 300v698 697l51 67c96 128 197 192 303 192 70-1 115-20 144-61 47-69 46-54 50-845l3-748h299 300v803c0 891 0 881-66 1016-108 219-359 323-642 265-141-29-251-87-366-195l-76-71v541 541l-47-1c-27-1-162-13-300-27z"/>
<path d="m4655 3155c-268-42-482-178-629-399-234-353-231-1006 7-1356 123-181 310-311 521-360 182-44 421-44 591 0 100 25 241 93 322 154 302 228 436 668 356 1166-60 379-286 657-618 759-155 48-380 63-550 36zm306-445c82-23 161-105 200-209 65-175 77-537 23-744-35-138-99-228-192-274-50-24-68-28-147-28-105 0-163 23-226 88-99 102-148 320-136 612 7 171 27 277 72 372 78 167 225 234 406 183z"/>
<path d="m6898 3155c-402-68-686-357-779-795-29-136-32-406-6-547 87-473 408-765 884-803 134-10 285 3 399 35 156 44 393 176 380 211-4 10-223 326-250 361-1 1-51-22-111-52-79-39-135-59-198-71-81-16-93-16-169-1-236 46-330 240-315 642 9 231 49 363 140 462 136 147 391 144 613-7l40-28 128 175c72 100 125 182 122 190-9 23-187 132-269 164-195 75-410 97-609 64z"/>
<path d="m3498 3137c-153-53-279-181-354-364-13-32-24-53-24-48-1 6-11 91-23 190l-22 180-267 3-268 2v-1015-1015h305 304l3 533 3 532 33 95c98 283 233 378 480 337 60-10 85-11 88-3 7 20 94 569 91 573-10 10-121 23-196 23-63 0-104-7-153-23z"/>
</g>
</svg>
