<?xml version="1.0" standalone="no"?>
<!DOCTYPE svg PUBLIC "-//W3C//DTD SVG 1.1//EN"
  "http://www.w3.org/Graphics/SVG/1.1/DTD/svg11.dtd">
<svg width="700" height="500">
<rect fill="#333" height="500" width="700"></rect>
<g><rect width="80" height="500" fill="gray"></rect>
<rect style="cursor: move" y="55" width="80" height="32" fill="black"></rect><rect style="cursor: move" y="126" width="80" height="32" fill="black"></rect><rect width="80" height="32" style="cursor: move" y="197" fill="black"></rect><rect style="cursor: move" y="268" width="80" height="32" fill="black"></rect><rect style="cursor: move" y="339" width="80" height="32" fill="black"></rect><rect style="cursor: move" y="410" width="80" height="32" fill="black"></rect><rect width="80" height="500" fill-opacity="0"></rect></g><g><line stroke="gold" x1="93" y1="250" x2="200" y2="250"></line><line stroke="gold" x1="100" y1="243" x2="100" y2="257"></line><line stroke="gold" x1="95" y1="245" x2="105" y2="255"></line><line stroke="gold" x1="95" y1="255" x2="105" y2="245"></line><rect fill="gray" height="20" width="5" x="200" y="240"></rect><line stroke="gold" x1="205" y1="250" x2="700" y2="0"></line><line stroke="gold" x1="205" y1="250" x2="700" y2="500"></line>
</g>
<line stroke="black" x1="700" y1="0" x2="700" y2="500"></line>
<g>
<polygon fill="gold" stroke="gold" points="700,500 700,0 698,0 698,1 698,2 698,3 698,4 697,5 697,6 697,7 697,8 697,9 697,10 696,11 696,12 696,13 696,14 696,15 696,16 696,17 695,18 695,19 695,20 695,21 695,22 695,23 695,24 695,25 695,26 695,27 695,28 695,29 695,30 695,31 696,32 696,33 696,34 696,35 696,36 696,37 696,38 697,39 697,40 697,41 697,42 697,43 698,44 698,45 698,46 698,47 698,48 699,49 699,50 699,51 699,52 699,53 699,54 700,55 700,56 700,57 700,58 700,59 700,60 700,61 700,62 700,63 700,64 700,65 700,66 700,67 700,68 699,69 699,70 699,71 699,72 699,73 699,74 698,75 698,76 698,77 698,78 697,79 697,80 697,81 697,82 696,83 696,84 696,85 696,86 695,87 695,88 695,89 695,90 695,91 694,92 694,93 694,94 694,95 694,96 694,97 694,98 694,99 694,100 694,101 694,102 694,103 694,104 695,105 695,106 695,107 695,108 695,109 696,110 696,111 696,112 697,113 697,114 697,115 697,116 698,117 698,118 698,119 699,120 699,121 699,122 699,123 700,124 700,125 700,126 700,127 700,128 700,129 700,130 700,131 700,132 700,133 700,134 699,135 699,136 699,137 698,138 698,139 698,140 697,141 697,142 696,143 696,144 695,145 694,146 694,147 693,148 693,149 692,150 691,151 691,152 690,153 690,154 689,155 689,156 688,157 688,158 688,159 687,160 687,161 687,162 687,163 687,164 687,165 687,166 687,167 687,168 687,169 688,170 688,171 689,172 689,173 690,174 691,175 691,176 692,177 693,178 693,179 694,180 695,181 696,182 697,183 697,184 698,185 699,186 699,187 699,188 700,189 700,190 700,191 700,192 700,193 699,194 699,195 698,196 697,197 695,198 694,199 692,200 690,201 688,202 685,203 683,204 679,205 676,206 672,207 668,208 664,209 660,210 655,211 650,212 645,213 639,214 633,215 627,216 621,217 615,218 608,219 601,220 594,221 587,222 580,223 573,224 566,225 559,226 552,227 545,228 538,229 531,230 524,231 517,232 511,233 505,234 499,235 493,236 487,237 482,238 477,239 473,240 468,241 465,242 461,243 458,244 456,245 454,246 452,247 451,248 450,249 450,250 450,251 451,252 452,253 454,254 456,255 458,256 461,257 465,258 468,259 473,260 477,261 482,262 487,263 493,264 499,265 505,266 511,267 517,268 524,269 531,270 538,271 545,272 552,273 559,274 566,275 573,276 580,277 587,278 594,279 601,280 608,281 615,282 621,283 627,284 633,285 639,286 645,287 650,288 655,289 660,290 664,291 668,292 672,293 676,294 679,295 683,296 685,297 688,298 690,299 692,300 694,301 695,302 697,303 698,304 699,305 699,306 700,307 700,308 700,309 700,310 700,311 699,312 699,313 699,314 698,315 697,316 697,317 696,318 695,319 694,320 693,321 693,322 692,323 691,324 691,325 690,326 689,327 689,328 688,329 688,330 687,331 687,332 687,333 687,334 687,335 687,336 687,337 687,338 687,339 687,340 688,341 688,342 688,343 689,344 689,345 690,346 690,347 691,348 691,349 692,350 693,351 693,352 694,353 694,354 695,355 696,356 696,357 697,358 697,359 698,360 698,361 698,362 699,363 699,364 699,365 700,366 700,367 700,368 700,369 700,370 700,371 700,372 700,373 700,374 700,375 700,376 699,377 699,378 699,379 699,380 698,381 698,382 698,383 697,384 697,385 697,386 697,387 696,388 696,389 696,390 695,391 695,392 695,393 695,394 695,395 694,396 694,397 694,398 694,399 694,400 694,401 694,402 694,403 694,404 694,405 694,406 694,407 694,408 695,409 695,410 695,411 695,412 695,413 696,414 696,415 696,416 696,417 697,418 697,419 697,420 697,421 698,422 698,423 698,424 698,425 699,426 699,427 699,428 699,429 699,430 699,431 700,432 700,433 700,434 700,435 700,436 700,437 700,438 700,439 700,440 700,441 700,442 700,443 700,444 700,445 699,446 699,447 699,448 699,449 699,450 699,451 698,452 698,453 698,454 698,455 698,456 697,457 697,458 697,459 697,460 697,461 696,462 696,463 696,464 696,465 696,466 696,467 696,468 695,469 695,470 695,471 695,472 695,473 695,474 695,475 695,476 695,477 695,478 695,479 695,480 695,481 695,482 696,483 696,484 696,485 696,486 696,487 696,488 696,489 697,490 697,491 697,492 697,493 697,494 697,495 698,496 698,497 698,498 698,499 698,500">
</polygon></g></svg>
